HIERARCHY
ROOT Hips
{
	OFFSET 0.000000 88.474243 0.000000
	CHANNELS 6 Xposition Yposition Zposition Zrotation Yrotation Xrotation 
	JOINT Hips_Spine
	{
		OFFSET 0.000000 0.000000 0.000000
		CHANNELS 3 Zrotation Yrotation Xrotation
		JOINT Spine
		{
			OFFSET 0.005100 8.711998 -0.691000
			CHANNELS 3 Zrotation Yrotation Xrotation
			JOINT Spine1
			{
				OFFSET -0.009200 8.660301 -1.275000
				CHANNELS 3 Zrotation Yrotation Xrotation
				JOINT Spine2
				{
					OFFSET 0.006300 9.852501 -1.857000
					CHANNELS 3 Zrotation Yrotation Xrotation
					JOINT Spine2_Neck
					{
						OFFSET 0.000000 0.000000 0.000000
						CHANNELS 3 Zrotation Yrotation Xrotation
						JOINT Neck
						{
							OFFSET 0.016300 11.420799 -0.263300
							CHANNELS 3 Zrotation Yrotation Xrotation
							End Site #name: Head
							{
								OFFSET -0.019200 9.262405 2.362500
							}
						}
					}
					JOINT Spine2_LeftShoulder
					{
						OFFSET 0.000000 0.000000 0.000000
						CHANNELS 3 Zrotation Yrotation Xrotation
						JOINT LeftShoulder
						{
							OFFSET 5.616900 6.732201 -0.345700
							CHANNELS 3 Zrotation Yrotation Xrotation
							JOINT LeftArm
							{
								OFFSET 10.664888 -0.183372 -2.440700
								CHANNELS 3 Zrotation Yrotation Xrotation
								JOINT LeftForeArm
								{
									OFFSET 27.459126 0.000000 0.000000
									CHANNELS 3 Zrotation Yrotation Xrotation
									End Site #name: LeftHand
									{
										OFFSET 21.306858 0.000000 0.000000
									}
								}
							}
						}
					}
					JOINT Spine2_RightShoulder
					{
						OFFSET 0.000000 0.000000 0.000000
						CHANNELS 3 Zrotation Yrotation Xrotation
						JOINT RightShoulder
						{
							OFFSET -5.580300 6.737503 -0.344400
							CHANNELS 3 Zrotation Yrotation Xrotation
							JOINT RightArm
							{
								OFFSET -10.679335 -0.188484 -2.383900
								CHANNELS 3 Zrotation Yrotation Xrotation
								JOINT RightForeArm
								{
									OFFSET -27.503529 0.000000 0.000000
									CHANNELS 3 Zrotation Yrotation Xrotation
									End Site #name: RightHand
									{
										OFFSET -21.306808 0.000000 0.000000
									}
								}
							}
						}
					}
				}
			}
		}
	}
	JOINT Hips_LeftUpLeg
	{
		OFFSET 0.000000 0.000000 0.000000
		CHANNELS 3 Zrotation Yrotation Xrotation
		JOINT LeftUpLeg
		{
			OFFSET 6.857700 -6.739601 0.312100
			CHANNELS 3 Zrotation Yrotation Xrotation
			JOINT LeftLeg
			{
				OFFSET -0.367590 -34.731552 -4.572400
				CHANNELS 3 Zrotation Yrotation Xrotation
				End Site #name: LeftFoot
				{
					OFFSET 0.367590 -34.656704 -6.067400
				}
			}
		}
	}
	JOINT Hips_RightUpLeg
	{
		OFFSET 0.000000 0.000000 0.000000
		CHANNELS 3 Zrotation Yrotation Xrotation
		JOINT RightUpLeg
		{
			OFFSET -6.876100 -6.733299 0.301000
			CHANNELS 3 Zrotation Yrotation Xrotation
			JOINT RightLeg
			{
				OFFSET 0.347353 -34.795158 -4.515900
				CHANNELS 3 Zrotation Yrotation Xrotation
				End Site #name: RightFoot
				{
					OFFSET -0.347353 -34.589367 -6.070300
				}
			}
		}
	}
}
MOTION
Frames: 6
Frame Time: 0.041667
0.230821 0.039618 0.021825 0.457908 9.273746 -7.401896 0.000000 0.000000 0.000000 -0.131034 0.161672 2.458150 -1.339996 -0.243621 1.151161 0.000000 0.000000 0.000000 -0.985665 -0.554159 -0.095972 1.994920 -0.496674 -4.490057 -0.638212 -1.037126 -0.881097 -17.340902 -12.942869 3.236216 -43.155709 -15.325427 32.988840 0.092632 -21.245513 2.819665 -1.381261 -0.191611 0.728687 12.865386 12.527048 6.127196 61.003466 6.091412 12.780847 0.091149 29.927116 0.904831 0.000000 -0.000000 -0.000000 -5.809570 11.659241 -7.355739 2.187075 5.731791 24.007875 0.000000 0.000000 0.000000 -3.338467 1.890667 -6.874739 2.345714 -4.949532 -1.196972 
0.690856 0.006252 0.116234 2.145357 11.092816 -8.443957 0.000000 0.000000 0.000000 -2.618369 -0.134586 0.106751 -1.020717 -0.156437 0.670753 0.000000 0.000000 0.000000 -1.405700 -0.405526 -0.625873 2.506824 -1.618304 -3.039280 -0.971955 -0.505461 -1.119059 -24.031739 -8.002734 1.532134 -34.703206 -14.656516 30.886307 -0.686236 -19.076713 0.207405 -1.491876 0.109058 0.416633 15.348644 10.661049 4.383875 61.129110 7.665531 9.850963 0.297215 27.168066 -0.135197 0.000000 -0.000000 -0.000000 -8.978541 10.588381 -5.179006 0.659258 6.529786 22.491198 0.000000 0.000000 0.000000 -7.194893 2.673186 -6.231514 2.643015 -6.632578 -0.111976 
1.007761 -0.015249 0.101373 3.358839 10.701546 -8.667058 0.000000 0.000000 -0.000000 -2.668603 0.167321 0.249282 -0.929225 0.163116 -0.208930 0.000000 0.000000 0.000000 -0.891503 -0.507299 -1.086776 2.752069 -2.036272 -2.958410 -0.788989 -0.447004 -1.221881 -29.775555 -5.847720 0.360996 -31.241684 -6.425683 24.457013 -1.052544 -18.479354 0.440640 -1.271632 0.271900 0.091741 15.504308 11.428824 3.393923 61.617772 9.149207 10.175946 0.433363 25.776019 -0.276450 0.000000 -0.000000 -0.000000 -11.197165 9.969603 -4.316337 0.494911 7.030924 21.432616 0.000000 0.000000 0.000000 -9.568525 1.347220 -7.408697 2.539906 -7.722622 2.963072 
1.352805 -0.043533 0.042741 3.834731 9.856932 -8.458498 0.000000 0.000000 -0.000000 -2.799275 0.318097 0.726848 -0.776614 0.197326 -0.323345 0.000000 0.000000 0.000000 -0.456743 -0.489447 -0.981778 2.667885 -2.535871 -2.093092 -0.493087 -0.433301 -1.168986 -33.019171 -5.314977 -0.536915 -29.237813 -3.073891 22.058557 -1.128206 -18.025775 0.531741 -0.763991 0.248067 0.186409 14.344803 12.260871 3.017729 62.133225 11.177154 8.347236 0.466717 30.327252 -0.417775 0.000000 -0.000000 -0.000000 -12.533199 9.685167 -4.380825 0.206995 7.255668 20.792519 0.000000 0.000000 0.000000 -10.787735 -0.039127 -8.939472 2.001600 -7.556883 6.149671 
1.756121 -0.065334 -0.025876 3.967828 9.151931 -8.199654 -0.000000 0.000000 -0.000000 -2.921265 0.510823 0.757476 -0.750008 0.240244 -0.165553 0.000000 0.000000 0.000000 -0.356191 -0.434548 -0.841837 2.622099 -2.913968 -1.197361 -0.326388 -0.427520 -0.984403 -35.407336 -4.617648 -1.073096 -28.248347 -2.730362 21.663305 -1.142746 -16.076777 0.896239 -0.522985 0.250705 0.372211 12.502293 12.798443 2.886266 63.495118 11.982783 6.836653 0.519737 33.389069 -0.465762 0.000000 -0.000000 -0.000000 -13.408820 9.306919 -4.791344 -0.036771 7.228249 20.837199 0.000000 0.000000 0.000000 -11.691052 -0.964033 -10.143380 1.754293 -7.242630 8.601267 
2.192368 -0.078401 -0.097982 3.912815 8.688717 -8.113746 -0.000000 0.000000 -0.000000 -2.952756 0.660947 0.539350 -0.839525 0.269394 -0.004550 0.000000 0.000000 0.000000 -0.425074 -0.404692 -0.663649 2.434997 -3.249438 -0.441280 -0.313680 -0.426667 -0.833996 -36.769658 -3.663405 -1.485278 -27.719489 -2.971907 22.479775 -0.997925 -13.218809 1.330209 -0.530006 0.279865 0.528908 11.264085 13.016525 2.788849 65.183819 11.833424 5.108660 0.574969 33.395540 -0.478645 0.000000 -0.000000 -0.000000 -14.001566 9.088992 -5.019333 -0.200594 7.092934 20.902274 0.000000 0.000000 0.000000 -12.365255 -1.273802 -10.738801 1.943652 -6.674979 9.844288 
